<svg width="300" height="400" viewBox="0 0 300 400" xmlns="http://www.w3.org/2000/svg">
  <!-- Page background -->
  <rect width="300" height="400" fill="white" stroke="#e5e7eb" stroke-width="1"/>

  <!-- Centered name -->
  <text x="150" y="50" fill="#374151" font-family="Arial, sans-serif" font-size="16" font-weight="bold" text-anchor="middle">JOHN DOE</text>
  <!-- Title -->
  <text x="150" y="66" fill="#6b7280" font-family="Arial, sans-serif" font-size="9" text-anchor="middle">Software Engineer</text>
  <!-- Contact line -->
  <text x="150" y="82" fill="#6b7280" font-family="Arial, sans-serif" font-size="6" text-anchor="middle">john@example.com | (555) 123-4567 | New York, NY</text>

  <!-- Summary section -->
  <text x="30" y="110" fill="#374151" font-family="Arial, sans-serif" font-size="9" font-weight="bold">SUMMARY</text>
  <line x1="30" y1="115" x2="270" y2="115" stroke="#e5e7eb" stroke-width="1.5"/>
  <rect x="30" y="122" width="220" height="5" rx="2" fill="#d1d5db"/>
  <rect x="30" y="131" width="200" height="5" rx="2" fill="#d1d5db"/>
  <rect x="30" y="140" width="180" height="5" rx="2" fill="#d1d5db"/>

  <!-- Experience section -->
  <text x="30" y="165" fill="#374151" font-family="Arial, sans-serif" font-size="9" font-weight="bold">EXPERIENCE</text>
  <line x1="30" y1="170" x2="270" y2="170" stroke="#e5e7eb" stroke-width="1.5"/>

  <text x="30" y="183" fill="#374151" font-family="Arial, sans-serif" font-size="7" font-weight="bold">Senior Developer</text>
  <text x="270" y="183" fill="#6b7280" font-family="Arial, sans-serif" font-size="6" text-anchor="end">2022 - Present</text>
  <text x="30" y="192" fill="#6b7280" font-family="Arial, sans-serif" font-size="6">Tech Company, San Francisco</text>
  <rect x="30" y="198" width="200" height="4" rx="2" fill="#e5e7eb"/>
  <rect x="30" y="205" width="180" height="4" rx="2" fill="#e5e7eb"/>

  <text x="30" y="222" fill="#374151" font-family="Arial, sans-serif" font-size="7" font-weight="bold">Web Developer</text>
  <text x="270" y="222" fill="#6b7280" font-family="Arial, sans-serif" font-size="6" text-anchor="end">2020 - 2022</text>
  <text x="30" y="231" fill="#6b7280" font-family="Arial, sans-serif" font-size="6">Startup Inc, Remote</text>
  <rect x="30" y="237" width="190" height="4" rx="2" fill="#e5e7eb"/>
  <rect x="30" y="244" width="170" height="4" rx="2" fill="#e5e7eb"/>

  <!-- Education section -->
  <text x="30" y="268" fill="#374151" font-family="Arial, sans-serif" font-size="9" font-weight="bold">EDUCATION</text>
  <line x1="30" y1="273" x2="270" y2="273" stroke="#e5e7eb" stroke-width="1.5"/>

  <text x="30" y="286" fill="#374151" font-family="Arial, sans-serif" font-size="7" font-weight="bold">B.S. in Computer Science</text>
  <text x="270" y="286" fill="#6b7280" font-family="Arial, sans-serif" font-size="6" text-anchor="end">2016 - 2020</text>
  <text x="30" y="295" fill="#6b7280" font-family="Arial, sans-serif" font-size="6">State University</text>

  <!-- Skills section -->
  <text x="30" y="318" fill="#374151" font-family="Arial, sans-serif" font-size="9" font-weight="bold">SKILLS</text>
  <line x1="30" y1="323" x2="270" y2="323" stroke="#e5e7eb" stroke-width="1.5"/>

  <rect x="30" y="330" width="50" height="14" rx="3" fill="#f3f4f6"/>
  <text x="55" y="340" fill="#374151" font-family="Arial, sans-serif" font-size="6" text-anchor="middle">JavaScript</text>

  <rect x="85" y="330" width="36" height="14" rx="3" fill="#f3f4f6"/>
  <text x="103" y="340" fill="#374151" font-family="Arial, sans-serif" font-size="6" text-anchor="middle">React</text>

  <rect x="126" y="330" width="42" height="14" rx="3" fill="#f3f4f6"/>
  <text x="147" y="340" fill="#374151" font-family="Arial, sans-serif" font-size="6" text-anchor="middle">Node.js</text>

  <rect x="173" y="330" width="38" height="14" rx="3" fill="#f3f4f6"/>
  <text x="192" y="340" fill="#374151" font-family="Arial, sans-serif" font-size="6" text-anchor="middle">Python</text>

  <rect x="216" y="330" width="48" height="14" rx="3" fill="#f3f4f6"/>
  <text x="240" y="340" fill="#374151" font-family="Arial, sans-serif" font-size="6" text-anchor="middle">TypeScript</text>
</svg>