<svg width="300" height="400" viewBox="0 0 300 400" xmlns="http://www.w3.org/2000/svg">
  <!-- Main white background -->
  <rect width="300" height="400" fill="white" stroke="#e5e7eb" stroke-width="1"/>

  <!-- Dark sidebar -->
  <rect x="0" y="0" width="106" height="400" fill="#2b2b2b"/>

  <!-- Profile photo — centered at column boundary, bridging both sides -->
  <rect x="56" y="16" width="60" height="60" fill="#444444"/>

  <!-- Sidebar top: Name + Title (left of photo) -->
  <text x="10" y="36" fill="white" font-family="Arial, sans-serif" font-size="11" font-weight="bold" letter-spacing="0.5">LEON</text>
  <text x="10" y="50" fill="white" font-family="Arial, sans-serif" font-size="11" font-weight="bold" letter-spacing="0.5">RYAN</text>
  <text x="10" y="63" fill="#cccccc" font-family="Arial, sans-serif" font-size="5" letter-spacing="0.3">FASHION DESIGNER</text>

  <!-- Main top: HELLO! + summary (right of photo) -->
  <text x="122" y="34" fill="#333333" font-family="Arial, sans-serif" font-size="14" font-weight="bold">HELLO !</text>
  <rect x="122" y="42" width="160" height="3" rx="1.5" fill="#d1d5db"/>
  <rect x="122" y="48" width="150" height="3" rx="1.5" fill="#d1d5db"/>
  <rect x="122" y="54" width="140" height="3" rx="1.5" fill="#d1d5db"/>
  <rect x="122" y="60" width="130" height="3" rx="1.5" fill="#d1d5db"/>
  <rect x="122" y="66" width="145" height="3" rx="1.5" fill="#d1d5db"/>

  <!-- Sidebar: Contact section -->
  <text x="10" y="95" fill="white" font-family="Arial, sans-serif" font-size="6" font-weight="bold" letter-spacing="0.5">CONTACT</text>
  <line x1="10" y1="99" x2="96" y2="99" stroke="#555555" stroke-width="1"/>
  <text x="10" y="110" fill="white" font-family="Arial, sans-serif" font-size="5">(555) 123-4567</text>
  <text x="10" y="119" fill="white" font-family="Arial, sans-serif" font-size="5">john@example.com</text>
  <text x="10" y="128" fill="white" font-family="Arial, sans-serif" font-size="5">www.example.com</text>
  <text x="10" y="137" fill="white" font-family="Arial, sans-serif" font-size="5">New York, NY</text>

  <!-- Sidebar: Skills section with progress bars -->
  <text x="10" y="157" fill="white" font-family="Arial, sans-serif" font-size="6" font-weight="bold" letter-spacing="0.5">SKILLS</text>
  <line x1="10" y1="161" x2="96" y2="161" stroke="#555555" stroke-width="1"/>

  <text x="10" y="173" fill="white" font-family="Arial, sans-serif" font-size="5">JavaScript</text>
  <rect x="10" y="176" width="86" height="3" rx="1.5" fill="#555555"/>
  <rect x="10" y="176" width="77" height="3" rx="1.5" fill="white"/>

  <text x="10" y="188" fill="white" font-family="Arial, sans-serif" font-size="5">React</text>
  <rect x="10" y="191" width="86" height="3" rx="1.5" fill="#555555"/>
  <rect x="10" y="191" width="66" height="3" rx="1.5" fill="white"/>

  <text x="10" y="203" fill="white" font-family="Arial, sans-serif" font-size="5">Node.js</text>
  <rect x="10" y="206" width="86" height="3" rx="1.5" fill="#555555"/>
  <rect x="10" y="206" width="58" height="3" rx="1.5" fill="white"/>

  <text x="10" y="218" fill="white" font-family="Arial, sans-serif" font-size="5">Python</text>
  <rect x="10" y="221" width="86" height="3" rx="1.5" fill="#555555"/>
  <rect x="10" y="221" width="49" height="3" rx="1.5" fill="white"/>

  <!-- Sidebar: Languages section -->
  <text x="10" y="242" fill="white" font-family="Arial, sans-serif" font-size="6" font-weight="bold" letter-spacing="0.5">LANGUAGES</text>
  <line x1="10" y1="246" x2="96" y2="246" stroke="#555555" stroke-width="1"/>
  <text x="10" y="257" fill="white" font-family="Arial, sans-serif" font-size="5">English</text>
  <text x="10" y="266" fill="white" font-family="Arial, sans-serif" font-size="5">Kurdish</text>

  <!-- Main: Education section (2-column grid) -->
  <text x="122" y="95" fill="#333333" font-family="Arial, sans-serif" font-size="8" font-weight="bold" letter-spacing="0.3">EDUCATION</text>
  <line x1="122" y1="99" x2="285" y2="99" stroke="#333333" stroke-width="1.5"/>

  <!-- Education entry 1 (left) -->
  <text x="122" y="111" fill="#666666" font-family="Arial, sans-serif" font-size="4.5">2016 - 2020</text>
  <text x="122" y="119" fill="#333333" font-family="Arial, sans-serif" font-size="6" font-weight="bold">BACHELOR OF ARTS</text>
  <text x="122" y="127" fill="#666666" font-family="Arial, sans-serif" font-size="5">University Name</text>

  <!-- Education entry 2 (right) -->
  <text x="203" y="111" fill="#666666" font-family="Arial, sans-serif" font-size="4.5">2020 - 2022</text>
  <text x="203" y="119" fill="#333333" font-family="Arial, sans-serif" font-size="6" font-weight="bold">MASTERS IN CS</text>
  <text x="203" y="127" fill="#666666" font-family="Arial, sans-serif" font-size="5">University Name</text>

  <!-- Main: Work Experience section -->
  <text x="122" y="150" fill="#333333" font-family="Arial, sans-serif" font-size="8" font-weight="bold" letter-spacing="0.3">WORK EXPERIENCE</text>
  <line x1="122" y1="154" x2="285" y2="154" stroke="#333333" stroke-width="1.5"/>

  <!-- Experience entry 1 -->
  <text x="122" y="167" fill="#333333" font-family="Arial, sans-serif" font-size="6.5" font-weight="bold">JOB POSITION / TITLE</text>
  <text x="245" y="167" fill="#666666" font-family="Arial, sans-serif" font-size="5">2022 - Present</text>
  <text x="122" y="176" fill="#666666" font-family="Arial, sans-serif" font-size="5">Company Name</text>
  <rect x="122" y="181" width="155" height="3" rx="1.5" fill="#e5e7eb"/>
  <rect x="122" y="187" width="140" height="3" rx="1.5" fill="#e5e7eb"/>

  <!-- Experience entry 2 -->
  <text x="122" y="205" fill="#333333" font-family="Arial, sans-serif" font-size="6.5" font-weight="bold">JOB POSITION / TITLE</text>
  <text x="245" y="205" fill="#666666" font-family="Arial, sans-serif" font-size="5">2020 - 2022</text>
  <text x="122" y="214" fill="#666666" font-family="Arial, sans-serif" font-size="5">Company Name</text>
  <rect x="122" y="219" width="150" height="3" rx="1.5" fill="#e5e7eb"/>
  <rect x="122" y="225" width="135" height="3" rx="1.5" fill="#e5e7eb"/>

  <!-- Experience entry 3 -->
  <text x="122" y="243" fill="#333333" font-family="Arial, sans-serif" font-size="6.5" font-weight="bold">JOB POSITION / TITLE</text>
  <text x="245" y="243" fill="#666666" font-family="Arial, sans-serif" font-size="5">2018 - 2020</text>
  <text x="122" y="252" fill="#666666" font-family="Arial, sans-serif" font-size="5">Company Name</text>
  <rect x="122" y="257" width="145" height="3" rx="1.5" fill="#e5e7eb"/>
  <rect x="122" y="263" width="130" height="3" rx="1.5" fill="#e5e7eb"/>
</svg>