<svg xmlns="http://www.w3.org/2000/svg" viewBox="0 0 300 400" width="300" height="400">
  <!-- White page background -->
  <rect width="300" height="400" fill="#ffffff" stroke="#e5e7eb" stroke-width="1"/>

  <!-- ============ CORAL HEADER BAND (~100px) ============ -->
  <rect x="0" y="0" width="300" height="100" fill="#e07a5f"/>

  <!-- Profile photo circle (left side of header) -->
  <circle cx="42" cy="50" r="24" fill="none" stroke="white" stroke-width="2"/>
  <circle cx="42" cy="45" r="8" fill="rgba(255,255,255,0.5)"/>
  <ellipse cx="42" cy="58" rx="11" ry="7" fill="rgba(255,255,255,0.5)"/>

  <!-- Name (large white rectangle) to the right of photo -->
  <rect x="78" y="34" width="110" height="7" rx="1.5" fill="white"/>
  <!-- Title (smaller white rectangle) -->
  <rect x="78" y="46" width="75" height="4.5" rx="1" fill="rgba(255,255,255,0.7)"/>

  <!-- Contact info row below name -->
  <rect x="78" y="60" width="38" height="3" rx="0.8" fill="rgba(255,255,255,0.5)"/>
  <rect x="120" y="60" width="45" height="3" rx="0.8" fill="rgba(255,255,255,0.5)"/>
  <rect x="169" y="60" width="35" height="3" rx="0.8" fill="rgba(255,255,255,0.5)"/>
  <rect x="78" y="67" width="42" height="3" rx="0.8" fill="rgba(255,255,255,0.5)"/>
  <rect x="124" y="67" width="50" height="3" rx="0.8" fill="rgba(255,255,255,0.5)"/>

  <!-- ============ WHITE CONTENT AREA ============ -->

  <!-- SUMMARY section -->
  <rect x="20" y="116" width="3.5" height="6" rx="0.8" fill="#e07a5f"/>
  <text x="27" y="121" font-family="Arial, sans-serif" font-size="5.5" font-weight="bold" letter-spacing="1" fill="#e07a5f">SUMMARY</text>

  <!-- Summary callout box -->
  <rect x="20" y="128" width="260" height="26" rx="3" fill="#fdf0ed"/>
  <rect x="20" y="128" width="2.5" height="26" rx="1" fill="#e07a5f"/>
  <rect x="28" y="135" width="240" height="2.5" rx="0.8" fill="#636e72" opacity="0.3"/>
  <rect x="28" y="141" width="220" height="2.5" rx="0.8" fill="#636e72" opacity="0.3"/>
  <rect x="28" y="147" width="200" height="2.5" rx="0.8" fill="#636e72" opacity="0.3"/>

  <!-- EXPERIENCE section -->
  <rect x="20" y="168" width="3.5" height="6" rx="0.8" fill="#e07a5f"/>
  <text x="27" y="173" font-family="Arial, sans-serif" font-size="5.5" font-weight="bold" letter-spacing="1" fill="#e07a5f">EXPERIENCE</text>

  <!-- Timeline line (vertical connecting line) -->
  <line x1="26" y1="183" x2="26" y2="280" stroke="#e8c4bc" stroke-width="0.8"/>

  <!-- Experience entry 1 -->
  <circle cx="26" cy="186" r="2.5" fill="#e07a5f"/>
  <rect x="35" y="182" width="100" height="4" rx="0.8" fill="#2d3436"/>
  <rect x="35" y="189" width="55" height="3" rx="0.8" fill="#e07a5f" opacity="0.6"/>
  <rect x="35" y="196" width="240" height="2.5" rx="0.8" fill="#636e72" opacity="0.25"/>
  <rect x="35" y="202" width="225" height="2.5" rx="0.8" fill="#636e72" opacity="0.25"/>
  <rect x="35" y="208" width="210" height="2.5" rx="0.8" fill="#636e72" opacity="0.25"/>

  <!-- Experience entry 2 -->
  <circle cx="26" cy="222" r="2.5" fill="#e07a5f"/>
  <rect x="35" y="218" width="90" height="4" rx="0.8" fill="#2d3436"/>
  <rect x="35" y="225" width="50" height="3" rx="0.8" fill="#e07a5f" opacity="0.6"/>
  <rect x="35" y="232" width="240" height="2.5" rx="0.8" fill="#636e72" opacity="0.25"/>
  <rect x="35" y="238" width="230" height="2.5" rx="0.8" fill="#636e72" opacity="0.25"/>

  <!-- Experience entry 3 -->
  <circle cx="26" cy="252" r="2.5" fill="#e07a5f"/>
  <rect x="35" y="248" width="110" height="4" rx="0.8" fill="#2d3436"/>
  <rect x="35" y="255" width="48" height="3" rx="0.8" fill="#e07a5f" opacity="0.6"/>
  <rect x="35" y="262" width="240" height="2.5" rx="0.8" fill="#636e72" opacity="0.25"/>
  <rect x="35" y="268" width="215" height="2.5" rx="0.8" fill="#636e72" opacity="0.25"/>
  <rect x="35" y="274" width="230" height="2.5" rx="0.8" fill="#636e72" opacity="0.25"/>

  <!-- SKILLS section -->
  <rect x="20" y="292" width="3.5" height="6" rx="0.8" fill="#e07a5f"/>
  <text x="27" y="297" font-family="Arial, sans-serif" font-size="5.5" font-weight="bold" letter-spacing="1" fill="#e07a5f">SKILLS</text>

  <!-- Skill pills row 1 -->
  <rect x="20" y="304" width="38" height="9" rx="4.5" fill="#fdf0ed" stroke="#e8c4bc" stroke-width="0.7"/>
  <rect x="22" y="307" width="24" height="3" rx="0.8" fill="#2d3436" opacity="0.4"/>
  <rect x="62" y="304" width="32" height="9" rx="4.5" fill="#fdf0ed" stroke="#e8c4bc" stroke-width="0.7"/>
  <rect x="64" y="307" width="20" height="3" rx="0.8" fill="#2d3436" opacity="0.4"/>
  <rect x="98" y="304" width="44" height="9" rx="4.5" fill="#fdf0ed" stroke="#e8c4bc" stroke-width="0.7"/>
  <rect x="100" y="307" width="30" height="3" rx="0.8" fill="#2d3436" opacity="0.4"/>
  <rect x="146" y="304" width="28" height="9" rx="4.5" fill="#fdf0ed" stroke="#e8c4bc" stroke-width="0.7"/>
  <rect x="148" y="307" width="16" height="3" rx="0.8" fill="#2d3436" opacity="0.4"/>

  <!-- Skill pills row 2 -->
  <rect x="20" y="317" width="42" height="9" rx="4.5" fill="#fdf0ed" stroke="#e8c4bc" stroke-width="0.7"/>
  <rect x="22" y="320" width="28" height="3" rx="0.8" fill="#2d3436" opacity="0.4"/>
  <rect x="66" y="317" width="36" height="9" rx="4.5" fill="#fdf0ed" stroke="#e8c4bc" stroke-width="0.7"/>
  <rect x="68" y="320" width="22" height="3" rx="0.8" fill="#2d3436" opacity="0.4"/>
  <rect x="106" y="317" width="30" height="9" rx="4.5" fill="#fdf0ed" stroke="#e8c4bc" stroke-width="0.7"/>
  <rect x="108" y="320" width="18" height="3" rx="0.8" fill="#2d3436" opacity="0.4"/>

  <!-- EDUCATION section -->
  <rect x="20" y="340" width="3.5" height="6" rx="0.8" fill="#e07a5f"/>
  <text x="27" y="345" font-family="Arial, sans-serif" font-size="5.5" font-weight="bold" letter-spacing="1" fill="#e07a5f">EDUCATION</text>

  <!-- Timeline line for education -->
  <line x1="26" y1="353" x2="26" y2="390" stroke="#e8c4bc" stroke-width="0.8"/>

  <!-- Education entry 1 -->
  <circle cx="26" cy="356" r="2.5" fill="#e07a5f"/>
  <rect x="35" y="352" width="120" height="4" rx="0.8" fill="#2d3436"/>
  <rect x="35" y="359" width="60" height="3" rx="0.8" fill="#e07a5f" opacity="0.6"/>
  <rect x="35" y="366" width="180" height="2.5" rx="0.8" fill="#636e72" opacity="0.25"/>

  <!-- Education entry 2 -->
  <circle cx="26" cy="380" r="2.5" fill="#e07a5f"/>
  <rect x="35" y="376" width="105" height="4" rx="0.8" fill="#2d3436"/>
  <rect x="35" y="383" width="55" height="3" rx="0.8" fill="#e07a5f" opacity="0.6"/>
  <rect x="35" y="390" width="160" height="2.5" rx="0.8" fill="#636e72" opacity="0.25"/>
</svg>