<svg viewBox="0 0 300 400" xmlns="http://www.w3.org/2000/svg" font-family="Arial, sans-serif">
  <!-- Background -->
  <rect width="300" height="400" fill="#1e1e2e"/>
  <!-- Sidebar -->
  <rect width="98" height="400" fill="#181825"/>

  <!-- Sidebar: Profile Photo Circle -->
  <circle cx="49" cy="40" r="18" fill="none" stroke="#a6e3a1" stroke-width="1.5"/>
  <circle cx="49" cy="36" r="6" fill="#6c7086"/>
  <ellipse cx="49" cy="47" rx="10" ry="6" fill="#6c7086"/>

  <!-- Sidebar: Name -->
  <text x="49" y="72" text-anchor="middle" fill="#cdd6f4" font-size="7" font-weight="bold">DEVELOPER</text>
  <!-- Sidebar: Title -->
  <text x="49" y="82" text-anchor="middle" fill="#a6e3a1" font-size="5.5">// Engineer</text>

  <!-- Sidebar: CONTACT -->
  <text x="12" y="100" fill="#a6e3a1" font-size="5.5" font-weight="bold">CONTACT</text>
  <line x1="12" y1="103" x2="86" y2="103" stroke="#a6e3a1" stroke-width="0.5"/>
  <rect x="12" y="108" width="50" height="3" rx="1" fill="#cdd6f4" opacity="0.7"/>
  <rect x="12" y="115" width="60" height="3" rx="1" fill="#cdd6f4" opacity="0.7"/>
  <rect x="12" y="122" width="45" height="3" rx="1" fill="#cdd6f4" opacity="0.7"/>
  <rect x="12" y="129" width="55" height="3" rx="1" fill="#cdd6f4" opacity="0.7"/>

  <!-- Sidebar: SKILLS -->
  <text x="12" y="148" fill="#a6e3a1" font-size="5.5" font-weight="bold">SKILLS</text>
  <line x1="12" y1="151" x2="86" y2="151" stroke="#a6e3a1" stroke-width="0.5"/>
  <!-- Skill chips row 1 -->
  <rect x="12" y="156" width="28" height="10" rx="3" fill="#313244"/>
  <text x="26" y="163" text-anchor="middle" fill="#cdd6f4" font-size="4.5">React</text>
  <rect x="43" y="156" width="38" height="10" rx="3" fill="#313244"/>
  <text x="62" y="163" text-anchor="middle" fill="#cdd6f4" font-size="4.5">TypeScript</text>
  <!-- Skill chips row 2 -->
  <rect x="12" y="170" width="30" height="10" rx="3" fill="#313244"/>
  <text x="27" y="177" text-anchor="middle" fill="#cdd6f4" font-size="4.5">Node.js</text>
  <rect x="45" y="170" width="32" height="10" rx="3" fill="#313244"/>
  <text x="61" y="177" text-anchor="middle" fill="#cdd6f4" font-size="4.5">Next.js</text>
  <!-- Skill chips row 3 -->
  <rect x="12" y="184" width="26" height="10" rx="3" fill="#313244"/>
  <text x="25" y="191" text-anchor="middle" fill="#cdd6f4" font-size="4.5">Python</text>
  <rect x="41" y="184" width="22" height="10" rx="3" fill="#313244"/>
  <text x="52" y="191" text-anchor="middle" fill="#cdd6f4" font-size="4.5">SQL</text>
  <!-- Skill chips row 4 -->
  <rect x="12" y="198" width="30" height="10" rx="3" fill="#313244"/>
  <text x="27" y="205" text-anchor="middle" fill="#cdd6f4" font-size="4.5">Docker</text>
  <rect x="45" y="198" width="20" height="10" rx="3" fill="#313244"/>
  <text x="55" y="205" text-anchor="middle" fill="#cdd6f4" font-size="4.5">Git</text>

  <!-- Sidebar: LANGUAGES -->
  <text x="12" y="225" fill="#a6e3a1" font-size="5.5" font-weight="bold">LANGUAGES</text>
  <line x1="12" y1="228" x2="86" y2="228" stroke="#a6e3a1" stroke-width="0.5"/>
  <rect x="12" y="233" width="40" height="3" rx="1" fill="#cdd6f4" opacity="0.7"/>
  <rect x="12" y="240" width="35" height="3" rx="1" fill="#cdd6f4" opacity="0.7"/>
  <rect x="12" y="247" width="42" height="3" rx="1" fill="#cdd6f4" opacity="0.7"/>

  <!-- Main: // PROFILE -->
  <text x="112" y="24" fill="#a6e3a1" font-size="6" font-weight="bold">// PROFILE</text>
  <line x1="112" y1="28" x2="286" y2="28" stroke="#a6e3a1" stroke-width="0.5"/>
  <rect x="112" y="33" width="165" height="3" rx="1" fill="#6c7086" opacity="0.6"/>
  <rect x="112" y="39" width="150" height="3" rx="1" fill="#6c7086" opacity="0.6"/>
  <rect x="112" y="45" width="160" height="3" rx="1" fill="#6c7086" opacity="0.6"/>
  <rect x="112" y="51" width="100" height="3" rx="1" fill="#6c7086" opacity="0.6"/>

  <!-- Main: // EXPERIENCE -->
  <text x="112" y="72" fill="#a6e3a1" font-size="6" font-weight="bold">// EXPERIENCE</text>
  <line x1="112" y1="76" x2="286" y2="76" stroke="#a6e3a1" stroke-width="0.5"/>

  <!-- Experience entry 1 -->
  <text x="112" y="87" fill="#cdd6f4" font-size="5.5" font-weight="bold">Senior Software Engineer</text>
  <text x="112" y="95" fill="#89b4fa" font-size="4.5">2023 - Present</text>
  <rect x="112" y="100" width="165" height="3" rx="1" fill="#6c7086" opacity="0.5"/>
  <rect x="112" y="106" width="145" height="3" rx="1" fill="#6c7086" opacity="0.5"/>
  <rect x="112" y="112" width="155" height="3" rx="1" fill="#6c7086" opacity="0.5"/>

  <!-- Experience entry 2 -->
  <text x="112" y="127" fill="#cdd6f4" font-size="5.5" font-weight="bold">Full Stack Developer</text>
  <text x="112" y="135" fill="#89b4fa" font-size="4.5">2021 - 2023</text>
  <rect x="112" y="140" width="160" height="3" rx="1" fill="#6c7086" opacity="0.5"/>
  <rect x="112" y="146" width="140" height="3" rx="1" fill="#6c7086" opacity="0.5"/>
  <rect x="112" y="152" width="150" height="3" rx="1" fill="#6c7086" opacity="0.5"/>

  <!-- Experience entry 3 -->
  <text x="112" y="167" fill="#cdd6f4" font-size="5.5" font-weight="bold">Frontend Developer</text>
  <text x="112" y="175" fill="#89b4fa" font-size="4.5">2019 - 2021</text>
  <rect x="112" y="180" width="155" height="3" rx="1" fill="#6c7086" opacity="0.5"/>
  <rect x="112" y="186" width="135" height="3" rx="1" fill="#6c7086" opacity="0.5"/>
  <rect x="112" y="192" width="148" height="3" rx="1" fill="#6c7086" opacity="0.5"/>

  <!-- Main: // EDUCATION -->
  <text x="112" y="212" fill="#a6e3a1" font-size="6" font-weight="bold">// EDUCATION</text>
  <line x1="112" y1="216" x2="286" y2="216" stroke="#a6e3a1" stroke-width="0.5"/>

  <text x="112" y="227" fill="#cdd6f4" font-size="5.5" font-weight="bold">B.Sc. Computer Science</text>
  <text x="112" y="235" fill="#89b4fa" font-size="4.5">2015 - 2019</text>
  <rect x="112" y="240" width="130" height="3" rx="1" fill="#6c7086" opacity="0.5"/>

  <!-- Main: // PROJECTS -->
  <text x="112" y="260" fill="#a6e3a1" font-size="6" font-weight="bold">// PROJECTS</text>
  <line x1="112" y1="264" x2="286" y2="264" stroke="#a6e3a1" stroke-width="0.5"/>

  <!-- Project entry 1 -->
  <text x="112" y="275" fill="#cdd6f4" font-size="5.5" font-weight="bold">Open Source CLI Tool</text>
  <rect x="112" y="280" width="160" height="3" rx="1" fill="#6c7086" opacity="0.5"/>
  <rect x="112" y="286" width="140" height="3" rx="1" fill="#6c7086" opacity="0.5"/>
  <!-- Project tech chips -->
  <rect x="112" y="293" width="22" height="8" rx="2" fill="#313244"/>
  <text x="123" y="299" text-anchor="middle" fill="#cdd6f4" font-size="3.5">Rust</text>
  <rect x="137" y="293" width="18" height="8" rx="2" fill="#313244"/>
  <text x="146" y="299" text-anchor="middle" fill="#cdd6f4" font-size="3.5">CLI</text>

  <!-- Project entry 2 -->
  <text x="112" y="314" fill="#cdd6f4" font-size="5.5" font-weight="bold">Portfolio Website</text>
  <rect x="112" y="319" width="155" height="3" rx="1" fill="#6c7086" opacity="0.5"/>
  <rect x="112" y="325" width="135" height="3" rx="1" fill="#6c7086" opacity="0.5"/>
  <!-- Project tech chips -->
  <rect x="112" y="332" width="28" height="8" rx="2" fill="#313244"/>
  <text x="126" y="338" text-anchor="middle" fill="#cdd6f4" font-size="3.5">Next.js</text>
  <rect x="143" y="332" width="34" height="8" rx="2" fill="#313244"/>
  <text x="160" y="338" text-anchor="middle" fill="#cdd6f4" font-size="3.5">Tailwind</text>
</svg>