<svg width="300" height="400" viewBox="0 0 300 400" xmlns="http://www.w3.org/2000/svg">
  <!-- Page background -->
  <rect width="300" height="400" fill="#2d2d2d"/>

  <!-- Dark sidebar -->
  <rect x="0" y="0" width="106" height="400" fill="#1a1a1a"/>

  <!-- Sidebar: Profile photo placeholder (square with gold border) -->
  <rect x="23" y="20" width="60" height="60" fill="#333333" stroke="#c9a84c" stroke-width="1.5"/>

  <!-- Sidebar: Professional Profile section -->
  <line x1="10" y1="97" x2="96" y2="97" stroke="#c9a84c" stroke-width="0.7"/>
  <text x="12" y="108" fill="#c9a84c" font-family="Arial, sans-serif" font-size="5.5" font-weight="bold" letter-spacing="0.5">PROFESSIONAL PROFILE</text>
  <line x1="10" y1="113" x2="96" y2="113" stroke="#c9a84c" stroke-width="0.7"/>
  <rect x="12" y="119" width="82" height="3" rx="1.5" fill="#555555"/>
  <rect x="12" y="125" width="75" height="3" rx="1.5" fill="#555555"/>
  <rect x="12" y="131" width="68" height="3" rx="1.5" fill="#555555"/>

  <!-- Sidebar: Contact section -->
  <line x1="10" y1="146" x2="96" y2="146" stroke="#c9a84c" stroke-width="0.7"/>
  <text x="12" y="157" fill="#c9a84c" font-family="Arial, sans-serif" font-size="5.5" font-weight="bold" letter-spacing="0.5">CONTACT</text>
  <line x1="10" y1="162" x2="96" y2="162" stroke="#c9a84c" stroke-width="0.7"/>
  <text x="12" y="173" fill="#b0b0b0" font-family="Arial, sans-serif" font-size="5">(555) 123-4567</text>
  <text x="12" y="183" fill="#b0b0b0" font-family="Arial, sans-serif" font-size="5">john@example.com</text>
  <text x="12" y="193" fill="#b0b0b0" font-family="Arial, sans-serif" font-size="5">New York, NY</text>

  <!-- Sidebar: Education section -->
  <line x1="10" y1="208" x2="96" y2="208" stroke="#c9a84c" stroke-width="0.7"/>
  <text x="12" y="219" fill="#c9a84c" font-family="Arial, sans-serif" font-size="5.5" font-weight="bold" letter-spacing="0.5">EDUCATION</text>
  <line x1="10" y1="224" x2="96" y2="224" stroke="#c9a84c" stroke-width="0.7"/>
  <text x="12" y="235" fill="white" font-family="Arial, sans-serif" font-size="5.5" font-weight="bold">Computer Science</text>
  <text x="12" y="244" fill="#b0b0b0" font-family="Arial, sans-serif" font-size="5">University Name</text>
  <text x="12" y="253" fill="#c9a84c" font-family="Arial, sans-serif" font-size="4.5">2020 - 2024</text>

  <!-- Sidebar: Skills section -->
  <line x1="10" y1="268" x2="96" y2="268" stroke="#c9a84c" stroke-width="0.7"/>
  <text x="12" y="279" fill="#c9a84c" font-family="Arial, sans-serif" font-size="5.5" font-weight="bold" letter-spacing="0.5">TECHNICAL SKILLS</text>
  <line x1="10" y1="284" x2="96" y2="284" stroke="#c9a84c" stroke-width="0.7"/>
  <text x="12" y="295" fill="white" font-family="Arial, sans-serif" font-size="5">JavaScript</text>
  <text x="12" y="304" fill="white" font-family="Arial, sans-serif" font-size="5">React</text>
  <text x="12" y="313" fill="white" font-family="Arial, sans-serif" font-size="5">Node.js</text>
  <text x="12" y="322" fill="white" font-family="Arial, sans-serif" font-size="5">Python</text>

  <!-- Sidebar: Languages section -->
  <line x1="10" y1="337" x2="96" y2="337" stroke="#c9a84c" stroke-width="0.7"/>
  <text x="12" y="348" fill="#c9a84c" font-family="Arial, sans-serif" font-size="5.5" font-weight="bold" letter-spacing="0.5">LANGUAGES</text>
  <line x1="10" y1="353" x2="96" y2="353" stroke="#c9a84c" stroke-width="0.7"/>
  <text x="12" y="364" fill="white" font-family="Arial, sans-serif" font-size="5">English</text>
  <text x="12" y="373" fill="white" font-family="Arial, sans-serif" font-size="5">Kurdish</text>

  <!-- Main content area -->
  <!-- Name -->
  <text x="120" y="38" fill="white" font-family="Arial, sans-serif" font-size="16" font-weight="bold" letter-spacing="1">SARAH</text>
  <text x="120" y="55" fill="white" font-family="Arial, sans-serif" font-size="16" font-weight="bold" letter-spacing="1">JOHNSON</text>

  <!-- Title with gold underline -->
  <text x="120" y="72" fill="#c9a84c" font-family="Arial, sans-serif" font-size="8">Marketing Manager</text>
  <line x1="120" y1="76" x2="160" y2="76" stroke="#c9a84c" stroke-width="1.5"/>

  <!-- Address -->
  <text x="120" y="88" fill="#b0b0b0" font-family="Arial, sans-serif" font-size="5">New York, NY</text>

  <!-- Experience section -->
  <line x1="120" y1="102" x2="285" y2="102" stroke="#c9a84c" stroke-width="0.7"/>
  <text x="120" y="113" fill="#c9a84c" font-family="Arial, sans-serif" font-size="6" font-weight="bold" letter-spacing="0.5">PROFESSIONAL EXPERIENCE</text>
  <line x1="120" y1="118" x2="285" y2="118" stroke="#c9a84c" stroke-width="0.7"/>

  <!-- Experience entry 1 -->
  <text x="120" y="132" fill="white" font-family="Arial, sans-serif" font-size="7" font-weight="bold">Senior Marketing Specialist</text>
  <text x="120" y="142" fill="#b0b0b0" font-family="Arial, sans-serif" font-size="5.5">ABC Company | New York</text>
  <text x="243" y="132" fill="#c9a84c" font-family="Arial, sans-serif" font-size="5">Jan 2022 - Present</text>
  <rect x="120" y="147" width="155" height="3" rx="1.5" fill="#555555"/>
  <rect x="120" y="153" width="140" height="3" rx="1.5" fill="#555555"/>

  <!-- Experience entry 2 -->
  <text x="120" y="172" fill="white" font-family="Arial, sans-serif" font-size="7" font-weight="bold">Marketing Coordinator</text>
  <text x="120" y="182" fill="#b0b0b0" font-family="Arial, sans-serif" font-size="5.5">XYZ Corp | Boston</text>
  <text x="243" y="172" fill="#c9a84c" font-family="Arial, sans-serif" font-size="5">Mar 2020 - Dec 2021</text>
  <rect x="120" y="187" width="150" height="3" rx="1.5" fill="#555555"/>
  <rect x="120" y="193" width="135" height="3" rx="1.5" fill="#555555"/>

  <!-- Projects section -->
  <line x1="120" y1="212" x2="285" y2="212" stroke="#c9a84c" stroke-width="0.7"/>
  <text x="120" y="223" fill="#c9a84c" font-family="Arial, sans-serif" font-size="6" font-weight="bold" letter-spacing="0.5">PROJECTS</text>
  <line x1="120" y1="228" x2="285" y2="228" stroke="#c9a84c" stroke-width="0.7"/>

  <text x="120" y="242" fill="white" font-family="Arial, sans-serif" font-size="7" font-weight="bold">Brand Relaunch</text>
  <rect x="120" y="247" width="145" height="3" rx="1.5" fill="#555555"/>
  <rect x="120" y="253" width="125" height="3" rx="1.5" fill="#555555"/>
</svg>